<svg width="64" height="64" viewBox="0 0 64 64" fill="none" xmlns="http://www.w3.org/2000/svg">
<path d="M53.1344 32.4427C52.9462 32.4427 52.767 32.4427 52.5789 32.4427C52.737 31.8462 52.8182 31.2328 52.8208 30.6167C52.8184 28.6116 51.9999 26.6894 50.5452 25.2724C49.0904 23.8554 47.1183 23.0595 45.0621 23.0595C44.1434 23.0643 43.233 23.23 42.3743 23.5488C40.4777 20.402 37.5704 17.9526 34.1023 16.5796C30.6342 15.2066 26.7987 14.9865 23.1894 15.9534C19.5801 16.9204 16.3983 19.0204 14.1363 21.9286C11.8744 24.8367 10.6584 28.3908 10.6766 32.0408C10.6766 32.3291 10.6766 32.6174 10.7214 32.9144H10.6229C8.48435 32.9144 6.43342 33.7429 4.92125 35.2174C3.40909 36.692 2.55957 38.692 2.55957 40.7774C2.55957 42.8628 3.40909 44.8628 4.92125 46.3373C6.43342 47.8119 8.48435 48.6404 10.6229 48.6404H53.1344C55.337 48.6404 57.4495 47.7871 59.007 46.2683C60.5646 44.7494 61.4396 42.6895 61.4396 40.5415C61.4396 38.3936 60.5646 36.3336 59.007 34.8148C57.4495 33.2959 55.337 32.4427 53.1344 32.4427Z" fill="white"/>
</svg>
