<svg width="64" height="64" viewBox="0 0 64 64" fill="none" xmlns="http://www.w3.org/2000/svg">
<path fill-rule="evenodd" clip-rule="evenodd" d="M30.0758 3.09916C31.3103 2.37971 33.3305 2.37971 34.5649 3.09916L55.9958 15.5873C56.6129 15.9471 57.1744 16.5683 57.5813 17.2795L57.6554 17.4137C58.0185 18.0903 58.2404 18.8369 58.2404 19.5115V44.4878C58.2403 45.2072 57.9875 46.0086 57.5808 46.7197C57.174 47.4309 56.6131 48.0522 55.9958 48.4119L34.5649 60.9001C33.3305 61.6194 31.3103 61.6194 30.0758 60.9001L8.64493 48.4119C8.0664 48.0748 7.53726 47.5073 7.13821 46.8518L7.06002 46.7197C6.65313 46.0086 6.40044 45.2072 6.40039 44.4878V19.5115C6.40039 18.0727 7.41037 16.3068 8.64493 15.5873L30.0758 3.09916ZM32.3204 14.5589C22.7922 14.5589 15.0403 22.3827 15.0402 31.9996C15.0402 41.6166 22.7922 49.4409 32.3204 49.4409C38.469 49.4409 44.2034 46.1011 47.2853 40.725L39.8069 36.3575C38.2642 39.0487 35.3955 40.7205 32.3204 40.7205C27.5562 40.7205 23.6806 36.808 23.6806 31.9996C23.6807 27.1911 27.5563 23.2792 32.3204 23.2792C35.3952 23.2792 38.2639 24.951 39.8064 27.6417L47.2848 23.2737C44.2029 17.8982 38.4687 14.5589 32.3204 14.5589ZM45.7606 31.0307H43.8403V32.9685H45.7606V34.9064H47.6803V32.9685H49.6006V31.0307H47.6803V29.0928H45.7606V31.0307ZM52.9604 31.0307H51.0406V32.9685H52.9604V34.9064H54.8801V32.9685H56.8003V31.0307H54.8801V29.0928H52.9604V31.0307Z" fill="white"/>
</svg>
