<svg width="24" height="24" viewBox="0 0 24 24" fill="none" xmlns="http://www.w3.org/2000/svg">
<g opacity="0.8">
<path d="M4.4 6.804C5.73333 6.804 6.8 5.71977 6.8 4.402C6.8 3.08424 5.71667 2 4.4 2C3.08333 2 2 3.08424 2 4.402C2 5.71977 3.08333 6.804 4.4 6.804ZM9.08333 8.62219V22H13.2167V15.3945C13.2167 13.643 13.55 11.9583 15.7 11.9583C17.85 11.9583 17.85 13.96 17.85 15.4946V22H22V14.6606C22 11.0575 21.2333 8.28857 17.0333 8.28857C15.0167 8.28857 13.6667 9.38949 13.1167 10.4404H13.0667V8.6055H9.1L9.08333 8.62219ZM2.33333 8.62219H6.48333V22H2.33333V8.62219Z" fill="white"/>
</g>
</svg>
