<svg width="64" height="64" viewBox="0 0 64 64" fill="none" xmlns="http://www.w3.org/2000/svg">
<path fill-rule="evenodd" clip-rule="evenodd" d="M29.4985 3.17013C30.9009 2.35735 32.6286 2.35735 34.031 3.17013L55.5035 15.6145C56.9059 16.4273 57.7697 17.9296 57.7698 19.5551V44.4451C57.7697 46.0706 56.9058 47.5724 55.5035 48.3851L34.031 60.8301C32.6286 61.6429 30.9009 61.6429 29.4985 60.8301L8.02602 48.3851C6.62367 47.5724 5.75981 46.0706 5.75977 44.4451V19.5551C5.75978 17.9296 6.62365 16.4273 8.02602 15.6145L29.4985 3.17013ZM33.9448 6.98701C32.7732 6.31855 31.2474 6.31856 30.0666 6.98701L11.2916 17.7926C10.0826 18.4893 9.22732 19.7989 9.22727 21.1995V42.782C9.22727 44.1827 10.1051 45.4927 11.3141 46.1933L16.2741 49.0158C18.645 50.1856 19.4834 50.1851 20.5623 50.1851C24.0725 50.185 26.0778 48.0589 26.0779 44.3501V23.0426C26.0779 22.7418 25.9215 22.294 25.6266 22.2939H23.2579C22.958 22.2939 22.2862 22.7415 22.286 23.042V44.3495C22.286 45.9936 20.8017 47.6298 18.0273 46.2401L12.9016 43.2808C12.723 43.1837 12.5973 42.9879 12.5973 42.782V21.1995C12.5974 20.9961 12.8312 20.7918 13.011 20.6876L31.7254 9.90076C31.9002 9.80165 32.1573 9.80161 32.3316 9.90076L50.8173 20.6851C50.9942 20.7919 50.9323 20.9898 50.9323 21.1995V42.782C50.9323 42.9879 51.009 43.1885 50.8341 43.2876L32.2623 54.0808C32.103 54.1766 31.9054 54.1766 31.731 54.0808L26.9679 51.2326C26.8243 51.1491 26.6537 51.1193 26.516 51.1964C25.1907 51.9488 24.9461 52.049 23.7029 52.4808C23.3971 52.5875 22.9464 52.7726 23.876 53.2945L30.1098 56.9889C30.7049 57.3332 31.38 57.515 32.0673 57.5151C32.759 57.5151 33.4366 57.3349 34.0335 56.9889L52.5204 46.1933C53.7294 45.4877 54.3029 44.1827 54.3029 42.782V21.1995C54.3029 19.7989 53.7296 18.4927 52.521 17.7926L33.9448 6.98701ZM37.0854 21.9276C31.7644 21.9276 28.5904 24.1788 28.5904 27.952C28.5905 32.0444 31.7484 33.1754 36.856 33.6814C42.9664 34.2815 43.4416 35.1762 43.4416 36.3801C43.4416 38.4712 41.7662 39.362 37.8354 39.362C32.8958 39.362 31.8075 37.997 31.4448 35.5364C31.4026 35.2714 31.1777 34.9545 30.9085 34.9545H28.4948C28.1961 34.9545 27.956 35.3172 27.956 35.6151C27.956 38.7658 29.666 42.5833 37.836 42.5833C43.75 42.5832 47.1404 40.281 47.1404 36.207C47.1403 32.1677 44.4164 31.1075 38.681 30.347C32.8839 29.5794 32.2942 29.1917 32.2941 27.8314C32.2941 26.7097 32.7933 25.2133 37.086 25.2133C40.9215 25.2133 42.3355 26.0379 42.9173 28.6276C42.967 28.871 43.1886 29.0456 43.4391 29.0458H45.8635C46.0126 29.0457 46.1547 28.9856 46.2591 28.8789C46.3602 28.7641 46.4139 28.6202 46.4004 28.4658C46.025 24.006 43.0674 21.9276 37.0854 21.9276Z" fill="white"/>
</svg>
