<svg width="64" height="64" viewBox="0 0 64 64" fill="none" xmlns="http://www.w3.org/2000/svg">
<path d="M49.8008 17.0938C49.7036 17.2126 49.3889 17.2316 49.1474 17.1953C48.9011 17.1639 48.6284 17.1342 48.3457 17.1235C47.7739 17.0988 47.123 17.1144 46.6056 17.1912C45.064 17.4279 43.5619 18.1828 42.5518 19.3551C41.4436 20.6965 41.5457 22.6039 41.7674 24.2365C41.914 25.5021 42.4018 26.6661 42.8558 27.8442C43.3617 29.1798 43.9788 30.4594 44.5482 31.7711C44.7319 32.1787 44.9157 32.5862 45.0739 33.0045C45.3631 33.8014 45.5575 34.6734 45.9695 35.4217C46.491 36.4051 46.9055 37.4833 47.9189 38.0526C48.2007 38.2101 48.5847 38.4312 48.4191 38.8082C48.0837 39.4608 47.7072 40.0944 47.4872 40.8542C47.1172 41.9391 47.0934 43.1147 46.9566 44.2457C46.7695 45.7604 46.5998 47.3089 46.468 48.8335C46.3642 49.6279 46.2793 50.3531 46.2274 51.1352C46.0074 53.5128 45.9217 56.472 44.5029 58.4363C43.6278 59.5946 42.3697 60.3436 41.0283 60.8733C39.6119 61.4656 37.9253 61.6364 36.448 61.1802C33.3582 60.1646 32.7987 56.1808 32.5936 53.37C32.4288 50.933 32.554 46.9979 32.5013 44.8777C32.507 44.4643 32.479 44.1508 32.4419 43.759C32.3917 43.1716 32.367 42.2402 32.2228 41.5794C31.7012 39.026 30.8221 39.8155 30.2989 38.7777C30.1786 38.4683 30.214 38.1152 30.2445 37.7877C30.3516 36.7227 30.6078 35.7005 31.0248 34.7295C31.913 32.9046 32.5054 30.9296 32.727 28.9035C32.9701 27.0827 32.919 25.2339 32.554 23.4363C32.1404 21.2913 31.1072 18.6506 29.0061 17.7018C27.5955 17.0938 25.9344 17.2885 24.4859 17.6952C23.7526 17.8841 23.0111 18.1407 22.3577 18.5054C22.0347 18.6877 21.7216 18.8906 21.4209 19.0969C21.2676 19.1818 21.0979 19.3303 20.924 19.261C20.8696 19.228 20.8597 19.1975 20.8367 19.139C20.7897 18.9566 20.7897 18.7273 20.8136 18.5103C20.8507 18.1374 20.8952 17.7612 20.9487 17.4073C21.1135 16.5031 21.3022 15.5717 21.5115 14.6906C22.1336 11.8461 23.414 9.42723 25.5546 7.44727C27.1324 5.93672 29.142 4.91044 31.281 4.4732C33.0327 4.21498 34.964 4.32717 36.6828 4.79989C37.8808 5.10348 39.1093 5.5135 40.1854 6.09182C43.4507 7.68734 45.6811 9.87107 47.6388 12.9054C48.1241 13.5951 48.5781 14.3219 49.0543 15.0132C49.332 15.4381 50.1494 16.6153 49.805 17.0872L49.8 17.093L49.8008 17.0938Z" fill="white"/>
<path d="M18.0781 3.23294C19.4681 3.33936 20.8589 3.52911 22.206 3.89788C22.9929 4.1858 24.0088 4.24932 24.5658 4.86228C24.5535 5.31685 23.8218 5.65427 23.5557 6.03376C22.9534 6.6096 22.417 7.26216 21.921 7.92298C18.7611 12.2418 18.0031 18.3566 18.0822 23.6026C18.1588 25.1305 18.4077 26.5487 18.3104 28.0815C18.2519 29.399 17.9998 30.6579 18.1638 31.9729C18.3706 34.9321 19.9418 37.6958 22.2102 39.5587C23.9989 40.6732 23.5763 40.6287 22.3749 42.0938C20.5145 44.1349 18.6342 47.7252 15.3615 46.9613C12.8065 45.8055 11.1924 43.1457 10.1492 40.6328C8.37117 35.6755 6.7447 30.6431 5.71065 25.4696C4.98228 22.0533 4.33219 18.595 4.51016 15.0838C4.93861 7.39664 10.3734 2.5845 18.0641 3.23211H18.0781V3.23294Z" fill="white"/>
<path d="M46.807 2.6295C50.5848 3.23421 54.4532 4.78188 57.1359 7.553C62.0203 12.8659 58.1428 22.3466 56.2939 28.3707C56.1694 29.0546 51.571 39.9675 51.1945 37.8052C51.3024 36.7459 51.964 35.7931 52.0942 34.7008C52.4131 33.1292 52.3777 31.5452 52.3694 29.9348C52.395 28.143 51.8759 26.5895 52.3241 24.8554C52.6891 21.7073 53.2115 18.2819 51.9039 15.2914C50.1983 12.1531 48.0577 9.11718 45.4104 6.69915C44.3944 5.90386 43.3439 5.13745 42.2192 4.50221C41.771 4.12189 40.4173 3.75313 40.25 3.30846C42.2242 2.46202 44.6433 2.50245 46.7921 2.62785L46.807 2.6295Z" fill="white"/>
<path d="M28.8394 42.1094C29.4318 42.1209 29.8166 42.512 29.8553 43.0994C29.899 43.4871 29.9253 43.9994 29.9566 44.4276C29.9632 45.0092 30.1363 45.5422 29.8907 46.0627C29.7358 46.377 29.4227 46.5148 29.1203 46.665C28.7446 46.8489 28.3541 47.0172 27.9322 47.0973C26.1212 47.4965 24.0704 47.1855 22.4554 46.269C22.0822 46.0479 21.4848 45.6387 21.7205 45.1462C21.8844 44.85 22.3261 44.7502 22.6466 44.6504C22.8888 44.5811 23.1294 44.5109 23.3725 44.4466C24.072 44.2593 24.7814 44.0671 25.4488 43.799C26.1146 43.5449 26.7136 43.2347 27.287 42.8255C27.8103 42.4138 28.0838 42.0475 28.827 42.1094H28.841H28.8394Z" fill="white"/>
<path d="M51.1097 39.6346C51.286 39.6503 51.4657 39.7171 51.6395 39.7699C52.7172 40.1147 53.9408 39.8425 55.0539 39.7443C55.4577 39.7097 55.8631 39.6849 56.2676 39.6552C56.6318 39.6338 57.0512 39.5595 57.3898 39.6519C58.3992 40.0141 57.2341 41.1584 56.8295 41.5692C56.434 41.9899 55.9932 42.3826 55.5121 42.7027C54.3379 43.5384 52.9117 43.9567 51.4665 44.0747C50.8238 44.1085 50.0888 44.158 49.4874 43.9212C48.9567 43.6539 49.227 42.9552 49.3069 42.5006C49.4849 41.7606 49.7823 41.042 50.1894 40.415C50.4374 40.0512 50.6483 39.5843 51.099 39.6346H51.1089H51.1097Z" fill="white"/>
<path fill-rule="evenodd" clip-rule="evenodd" d="M20.8525 23.7275C22.1791 21.6585 25.0902 19.9164 27.5991 20.3354L27.6122 20.3387V20.3371C28.9404 20.6728 29.2677 22.1198 29.6599 23.2484C30.1493 24.9313 30.2059 26.7222 30.0593 28.4686C29.9143 29.7621 29.6493 31.0707 29.239 32.3007C28.6836 33.586 28.0168 34.7782 27.7803 36.1757C27.6534 36.8835 27.5735 37.5931 27.4994 38.3142C27.473 38.6772 27.4013 39.1928 26.9547 39.2134C25.2607 38.8908 23.6656 37.9271 22.5608 36.6047C19.8855 32.9839 20.5782 30.9924 20.916 26.908C20.9984 25.8635 20.5122 24.7324 20.8525 23.7275ZM26.9449 22.1522C26.9243 22.1522 26.9037 22.1531 26.883 22.1538C26.8622 22.1546 26.8413 22.1552 26.8203 22.1567C26.7974 22.1583 26.7745 22.1607 26.7515 22.1632C26.7281 22.1657 26.7046 22.1684 26.6811 22.1718C26.6657 22.1741 26.6504 22.1764 26.6351 22.1791C26.5995 22.1852 26.5642 22.1928 26.5293 22.2011C26.5244 22.2023 26.5194 22.2032 26.5146 22.2044C26.2148 22.2787 25.948 22.4353 25.8535 22.6978C25.8495 22.7085 25.8463 22.7195 25.8429 22.7305C25.8412 22.7362 25.8391 22.7418 25.8376 22.7476C25.813 22.837 25.8086 22.9366 25.8286 23.0473C25.8292 23.0508 25.8296 23.0544 25.8302 23.0579C25.8307 23.0598 25.8314 23.0617 25.8319 23.0636C25.8435 23.1217 25.8611 23.1828 25.8868 23.2467C25.9013 23.277 25.9169 23.3064 25.9328 23.3352C26.0236 23.5122 26.1552 23.6617 26.3167 23.7814C26.4615 23.8908 26.6315 23.9744 26.8269 24.0313C26.8325 24.033 26.8379 24.0354 26.8435 24.0371C27.0216 24.0866 27.2181 24.105 27.4155 24.0946C27.4245 24.0941 27.4334 24.0931 27.4424 24.0925C27.5035 24.0884 27.5646 24.0814 27.6252 24.0717C27.653 24.0673 27.6807 24.0622 27.7082 24.0566C27.8255 24.0328 27.9397 23.9987 28.0474 23.9543C28.2485 23.8713 28.4268 23.7538 28.5558 23.6015C28.7041 23.453 28.825 23.2319 28.7846 23.0273C28.7223 22.7408 28.4138 22.5408 28.0657 22.403C27.764 22.2834 27.4327 22.2104 27.2063 22.1701L27.192 22.1685H27.1928C27.1515 22.1625 27.1085 22.1583 27.0642 22.1555C27.0597 22.1552 27.0552 22.1553 27.0508 22.155C27.0161 22.1531 26.9808 22.1521 26.9449 22.1522Z" fill="white"/>
<path fill-rule="evenodd" clip-rule="evenodd" d="M44.2582 22.0225C44.2525 19.9725 46.9174 19.5221 48.5406 19.7845L48.5544 19.7869V19.7861C49.5802 19.9453 50.3413 20.3256 50.193 21.4854C50.1279 22.6725 49.8571 23.8276 49.7236 25.0023C49.7928 26.9624 50.1231 28.9136 50.1132 30.8779C50.236 32.1054 49.9181 33.3091 49.7204 34.5053C49.6602 35.077 49.3666 36.1495 48.8475 35.1818C48.457 34.4518 48.0361 33.73 47.7675 32.9373C47.1248 30.8938 46.1371 28.9888 45.3741 26.9924C44.724 25.4208 44.0852 23.7673 44.2582 22.0225ZM47.329 21.1959C46.875 20.9889 45.591 21.0695 45.1115 21.4642C45.0421 21.5211 44.9897 21.5846 44.9588 21.6546C44.7726 22.0878 45.1903 22.5268 45.5833 22.6786C45.8651 22.7916 46.1946 22.8115 46.4904 22.7406C46.8543 22.6758 47.404 22.2351 47.559 21.817C47.6469 21.5807 47.6095 21.3515 47.3408 21.2008L47.3298 21.1951L47.329 21.1959Z" fill="white"/>
</svg>
