<svg width="64" height="64" viewBox="0 0 64 64" fill="none" xmlns="http://www.w3.org/2000/svg">
<path d="M31.8995 2.56006C17.9979 2.56006 17.8486 7.95615 17.8486 9.06684C17.8486 10.7519 17.8486 15.8081 17.8486 15.8081H32.1671V17.8319C32.1671 17.8319 17.2587 17.8319 12.1613 17.8319C7.90642 17.8319 2.55957 20.4189 2.55957 31.8829C2.55957 42.4133 6.73042 46.4857 10.9398 46.4857C12.1897 46.4857 15.9414 46.4857 15.9414 46.4857C15.9414 46.4857 15.9414 41.2587 15.9414 39.4602C15.9414 36.521 17.3979 31.08 24.1878 31.08C32.704 31.08 34.8778 31.08 38.3892 31.08C40.4778 31.08 46.3679 30.1721 46.3679 23.3688C46.3679 16.1683 46.3679 13.7928 46.3679 10.405C46.3685 8.71731 46.08 2.56006 31.8995 2.56006ZM24.0042 7.09329C25.4291 7.09329 26.5805 8.24412 26.5805 9.66956C26.5805 11.0939 25.4291 12.2458 24.0042 12.2458C22.5793 12.2458 21.428 11.0945 21.428 9.66956C21.428 8.24412 22.5793 7.09329 24.0042 7.09329Z" fill="white"/>
<path d="M32.0998 61.4402C45.995 61.4402 46.1679 55.9425 46.1679 54.9335C46.1679 53.2484 46.1679 48.1922 46.1679 48.1922H31.8322V46.1684C31.8322 46.1684 46.837 46.1684 51.838 46.1684C56.125 46.1684 61.4398 43.5166 61.4398 32.1174C61.4398 19.6338 55.7991 17.5146 53.0595 17.5146C51.8091 17.5146 48.0579 17.5146 48.0579 17.5146C48.0579 17.5146 48.0579 22.983 48.0579 24.5401C48.0579 27.4793 46.6496 32.9203 39.8115 32.9203C31.2953 32.9203 29.3865 32.9203 25.6096 32.9203C23.5264 32.9203 17.6309 33.9352 17.6309 40.6315C17.6309 48.3796 17.6309 50.4083 17.6309 53.5953C17.6309 56.3948 19.3416 61.4402 32.0998 61.4402ZM39.9957 56.907C38.5708 56.907 37.4194 55.7556 37.4194 54.3307C37.4194 52.9058 38.5702 51.7545 39.9957 51.7545C41.42 51.7545 42.5719 52.9058 42.5719 54.3307C42.5719 55.7556 41.42 56.907 39.9957 56.907Z" fill="white"/>
</svg>
