<svg width="64" height="64" viewBox="0 0 64 64" fill="none" xmlns="http://www.w3.org/2000/svg">
<path d="M61.441 27.7027C61.4359 29.5225 61.4307 31.3419 61.4255 33.1617C61.4234 33.9288 60.9193 34.6947 59.9122 35.2799L59.9277 29.8208C60.9347 29.2356 61.4389 28.4697 61.441 27.7027ZM2.60255 33.1319L2.61804 27.6729C2.61587 28.45 3.12883 29.2282 4.15587 29.8212L4.14037 35.2802C3.11326 34.6873 2.60037 33.9089 2.60255 33.1319Z" fill="white"/>
<path d="M59.927 29.8203L59.9116 35.2794L35.7876 49.2987L35.8031 43.8397L59.927 29.8203ZM28.4368 43.8396L28.4213 49.2986L4.13965 35.2796L4.15515 29.8206C12.249 34.4936 20.343 39.1666 28.4368 43.8396ZM35.8031 43.8397L35.7876 49.2986C33.76 50.4769 30.4622 50.4769 28.4213 49.2986L28.4368 43.8396C30.4777 45.0179 33.7755 45.018 35.8031 43.8397Z" fill="white"/>
<path d="M61.441 37.3755C61.4359 39.1952 61.4307 41.0146 61.4255 42.8344C61.4234 43.6015 60.9193 44.3674 59.9122 44.9527L59.9277 39.4936C60.9347 38.9084 61.4389 38.1425 61.441 37.3755ZM2.60255 42.8046L2.61804 37.3456C2.61587 38.1226 3.12883 38.9009 4.15587 39.4938L4.14037 44.9529C3.11326 44.3599 2.60037 43.5816 2.60255 42.8046Z" fill="white"/>
<path d="M59.927 39.4939L59.9116 44.953L35.7876 58.9723L35.8031 53.5132L59.927 39.4939ZM28.4368 53.5132L28.4213 58.9723L4.13965 44.9531L4.15515 39.4941L28.4368 53.5132ZM35.8031 53.5132L35.7876 58.9723C33.76 60.1506 30.4622 60.1506 28.4213 58.9723L28.4368 53.5132C30.4777 54.6916 33.7755 54.6916 35.8031 53.5132Z" fill="white"/>
<path d="M61.3921 20.8896L61.3825 24.2301C61.3825 24.2441 61.3823 24.2581 61.3818 24.2722L61.3914 20.9317C61.3918 20.9176 61.392 20.9036 61.3921 20.8896Z" fill="white"/>
<path d="M61.3915 20.9316L61.382 24.2722C61.3794 24.3643 61.3689 24.456 61.3507 24.5464L61.3602 21.2059C61.3784 21.1148 61.3889 21.0233 61.3915 20.9316ZM61.3601 21.2058L61.3506 24.5463C61.3321 24.638 61.3063 24.728 61.2734 24.8155L61.2829 21.475C61.3158 21.3875 61.3417 21.2975 61.3601 21.2058Z" fill="white"/>
<path d="M61.2833 21.4756L61.2738 24.8161C61.2384 24.9098 61.1958 25.0006 61.1465 25.0878L61.1557 21.7474C61.2052 21.6602 61.2479 21.5694 61.2833 21.4756Z" fill="white"/>
<path d="M61.1555 21.7473C61.1524 22.8607 61.1492 23.9743 61.1462 25.0878C61.0894 25.1878 61.0251 25.2833 60.9538 25.3734L60.9633 22.0329C61.0346 21.9428 61.0988 21.8473 61.1555 21.7473ZM60.9632 22.0329L60.9537 25.3734C60.8634 25.4873 60.7643 25.5939 60.6572 25.6922L60.6667 22.3517C60.7738 22.2535 60.873 22.1469 60.9632 22.0329Z" fill="white"/>
<path d="M60.6665 22.3516L60.6571 25.6921C60.4858 25.8503 60.2839 26.0006 60.0518 26.1403L60.0612 22.7998C60.2933 22.6602 60.4951 22.5098 60.6665 22.3516Z" fill="white"/>
<path d="M60.061 22.7998C60.0579 23.9133 60.0549 25.0268 60.0516 26.1403C60.0324 26.1519 60.013 26.1635 59.9932 26.1748L60.0026 22.8343C60.0223 22.8229 60.0418 22.8114 60.061 22.7998Z" fill="white"/>
<path d="M3.98141 22.8352L3.97202 26.1757C3.02927 25.6314 2.55845 24.917 2.56055 24.2037L2.56995 20.8633C2.56792 21.5766 3.03873 22.2909 3.98141 22.8352Z" fill="white"/>
<path d="M60.0029 22.835L59.9934 26.1755L35.4434 40.4424L35.4529 37.1018C43.6362 32.3462 51.8196 27.5907 60.0029 22.835Z" fill="white"/>
<path d="M28.6917 37.1018L28.6822 40.4425L3.97168 26.1757L3.98108 22.8352L28.6917 37.1018Z" fill="white"/>
<path d="M35.4528 37.1006L35.4433 40.4412C35.1242 40.6264 34.7712 40.78 34.3955 40.9017L34.4051 37.5614C34.7806 37.4395 35.1338 37.2859 35.4528 37.1006ZM34.4051 37.5614L34.3955 40.9017C34.1054 40.996 33.8019 41.071 33.4902 41.1273L33.4998 37.7866C33.8063 37.732 34.1087 37.6567 34.4051 37.5614Z" fill="white"/>
<path d="M33.5001 37.788L33.4906 41.1286C33.2903 41.1647 33.0863 41.193 32.8809 41.2135L32.8903 37.873C33.0959 37.8524 33.2997 37.8242 33.5001 37.788ZM32.8903 37.873L32.8809 41.2135C32.7052 41.231 32.5282 41.2428 32.3506 41.2487L32.36 37.9083C32.5371 37.9022 32.714 37.8905 32.8903 37.873Z" fill="white"/>
<path d="M32.3596 37.9067L32.3502 41.2472C32.187 41.2528 32.0237 41.2536 31.8605 41.2496L31.8699 37.909C32.0331 37.913 32.1966 37.9123 32.3596 37.9067ZM31.8699 37.909L31.8605 41.2496C31.7034 41.2455 31.5463 41.2371 31.3896 41.2244L31.399 37.8838C31.5554 37.8966 31.7125 37.9052 31.8699 37.909Z" fill="white"/>
<path d="M31.3991 37.885L31.3897 41.2256C31.2342 41.2127 31.0792 41.1954 30.9248 41.1736L30.9343 37.833C31.088 37.8549 31.2431 37.8721 31.3991 37.885Z" fill="white"/>
<path d="M30.9346 37.8334L30.9251 41.174C30.7663 41.1515 30.6082 41.1241 30.4512 41.0916L30.4606 37.751C30.6165 37.7834 30.7747 37.8109 30.9346 37.8334Z" fill="white"/>
<path d="M30.4606 37.7506L30.4511 41.0913C30.2835 41.0566 30.1172 41.0158 29.9526 40.969L29.962 37.6286C30.1249 37.6749 30.2914 37.7156 30.4606 37.7506ZM29.962 37.6286L29.9526 40.9689C29.756 40.9131 29.5623 40.8477 29.3721 40.773L29.3816 37.4325C29.5717 37.5074 29.7654 37.5729 29.962 37.6286Z" fill="white"/>
<path d="M29.3818 37.4324C29.3786 38.5459 29.3755 39.6594 29.3722 40.7729C29.1294 40.677 28.8984 40.5668 28.6826 40.4423L28.6921 37.1017C28.9079 37.2264 29.1388 37.3365 29.3818 37.4324Z" fill="white"/>
<path d="M59.9813 18.9177L35.2709 4.65113C33.3974 3.56946 30.3706 3.56946 28.5098 4.65085L3.9597 18.9177C2.0986 19.9993 2.10849 21.7526 3.98172 22.8342L28.6924 37.1009C30.5653 38.1824 33.5922 38.1823 35.4534 37.1007C43.6367 32.3451 51.8202 27.5895 60.0034 22.8338C61.8641 21.7524 61.8542 19.999 59.9813 18.9177ZM27.0623 9.35613L31.2385 10.6841L35.3868 8.2328L34.0549 11.6923L37.999 13.271L32.9996 14.0805L31.2892 17.5077L29.5316 14.5486L24.5303 15.0883L28.443 12.4494L27.0623 9.35613ZM14.8418 21.4701C13.9493 20.9549 13.348 20.2641 13.2142 19.4822C12.9087 17.6945 15.1621 16.1067 18.2471 15.9355C19.9827 15.8391 21.6115 16.2116 22.7591 16.8742C23.6515 17.3895 24.2529 18.0803 24.3865 18.8623C24.6921 20.6498 22.4391 22.2379 19.3537 22.4089C17.6181 22.5052 15.9895 22.1327 14.8418 21.4701ZM32.7771 32.9557L21.8672 26.6568L36.7091 24.3514L32.7771 32.9557ZM43.6869 25.612L34.6792 20.4114L43.6282 15.2105L52.6361 20.4113L43.6869 25.612Z" fill="white"/>
<path d="M61.441 27.7027C61.4359 29.5225 61.4307 31.3419 61.4255 33.1617C61.4234 33.9288 60.9193 34.6947 59.9122 35.2799L59.9277 29.8208C60.9347 29.2356 61.4389 28.4697 61.441 27.7027ZM2.60255 33.1319L2.61804 27.6729C2.61587 28.45 3.12883 29.2282 4.15587 29.8212L4.14037 35.2802C3.11326 34.6873 2.60037 33.9089 2.60255 33.1319Z" fill="white"/>
<path d="M59.927 29.8203L59.9116 35.2794L35.7876 49.2987L35.8031 43.8397L59.927 29.8203ZM28.4368 43.8396L28.4213 49.2986L4.13965 35.2796L4.15515 29.8206C12.249 34.4936 20.343 39.1666 28.4368 43.8396ZM35.8031 43.8397L35.7876 49.2986C33.76 50.4769 30.4622 50.4769 28.4213 49.2986L28.4368 43.8396C30.4777 45.0179 33.7755 45.018 35.8031 43.8397Z" fill="white"/>
<path d="M61.441 37.3755C61.4359 39.1952 61.4307 41.0146 61.4255 42.8344C61.4234 43.6015 60.9193 44.3674 59.9122 44.9527L59.9277 39.4936C60.9347 38.9084 61.4389 38.1425 61.441 37.3755ZM2.60255 42.8046L2.61804 37.3456C2.61587 38.1226 3.12883 38.9009 4.15587 39.4938L4.14037 44.9529C3.11326 44.3599 2.60037 43.5816 2.60255 42.8046Z" fill="white"/>
<path d="M59.927 39.4939L59.9116 44.953L35.7876 58.9723L35.8031 53.5132L59.927 39.4939ZM28.4368 53.5132L28.4213 58.9723L4.13965 44.9531L4.15515 39.4941L28.4368 53.5132ZM35.8031 53.5132L35.7876 58.9723C33.76 60.1506 30.4622 60.1506 28.4213 58.9723L28.4368 53.5132C30.4777 54.6916 33.7755 54.6916 35.8031 53.5132Z" fill="white"/>
<path d="M61.3921 20.8896L61.3825 24.2301C61.3825 24.2441 61.3823 24.2581 61.3818 24.2722L61.3914 20.9317C61.3918 20.9176 61.392 20.9036 61.3921 20.8896Z" fill="white"/>
<path d="M61.3915 20.9316L61.382 24.2722C61.3794 24.3643 61.3689 24.456 61.3507 24.5464L61.3602 21.2059C61.3784 21.1148 61.3889 21.0233 61.3915 20.9316ZM61.3601 21.2058L61.3506 24.5463C61.3321 24.638 61.3063 24.728 61.2734 24.8155L61.2829 21.475C61.3158 21.3875 61.3417 21.2975 61.3601 21.2058Z" fill="white"/>
<path d="M61.2833 21.4756L61.2738 24.8161C61.2384 24.9098 61.1958 25.0006 61.1465 25.0878L61.1557 21.7474C61.2052 21.6602 61.2479 21.5694 61.2833 21.4756Z" fill="white"/>
<path d="M61.1555 21.7473C61.1524 22.8607 61.1492 23.9743 61.1462 25.0878C61.0894 25.1878 61.0251 25.2833 60.9538 25.3734L60.9633 22.0329C61.0346 21.9428 61.0988 21.8473 61.1555 21.7473ZM60.9632 22.0329L60.9537 25.3734C60.8634 25.4873 60.7643 25.5939 60.6572 25.6922L60.6667 22.3517C60.7738 22.2535 60.873 22.1469 60.9632 22.0329Z" fill="white"/>
<path d="M60.6665 22.3516L60.6571 25.6921C60.4858 25.8503 60.2839 26.0006 60.0518 26.1403L60.0612 22.7998C60.2933 22.6602 60.4951 22.5098 60.6665 22.3516Z" fill="white"/>
<path d="M60.061 22.7998C60.0579 23.9133 60.0549 25.0268 60.0516 26.1403C60.0324 26.1519 60.013 26.1635 59.9932 26.1748L60.0026 22.8343C60.0223 22.8229 60.0418 22.8114 60.061 22.7998Z" fill="white"/>
<path d="M3.98141 22.8352L3.97202 26.1757C3.02927 25.6314 2.55845 24.917 2.56055 24.2037L2.56995 20.8633C2.56792 21.5766 3.03873 22.2909 3.98141 22.8352Z" fill="white"/>
<path d="M60.0029 22.835L59.9934 26.1755L35.4434 40.4424L35.4529 37.1018C43.6362 32.3462 51.8196 27.5907 60.0029 22.835Z" fill="white"/>
<path d="M28.6917 37.1018L28.6822 40.4425L3.97168 26.1757L3.98108 22.8352L28.6917 37.1018Z" fill="white"/>
<path d="M35.4528 37.1006L35.4433 40.4412C35.1242 40.6264 34.7712 40.78 34.3955 40.9017L34.4051 37.5614C34.7806 37.4395 35.1338 37.2859 35.4528 37.1006ZM34.4051 37.5614L34.3955 40.9017C34.1054 40.996 33.8019 41.071 33.4902 41.1273L33.4998 37.7866C33.8063 37.732 34.1087 37.6567 34.4051 37.5614Z" fill="white"/>
<path d="M33.5001 37.788L33.4906 41.1286C33.2903 41.1647 33.0863 41.193 32.8809 41.2135L32.8903 37.873C33.0959 37.8524 33.2997 37.8242 33.5001 37.788ZM32.8903 37.873L32.8809 41.2135C32.7052 41.231 32.5282 41.2428 32.3506 41.2487L32.36 37.9083C32.5371 37.9022 32.714 37.8905 32.8903 37.873Z" fill="white"/>
<path d="M32.3596 37.9067L32.3502 41.2472C32.187 41.2528 32.0237 41.2536 31.8605 41.2496L31.8699 37.909C32.0331 37.913 32.1966 37.9123 32.3596 37.9067ZM31.8699 37.909L31.8605 41.2496C31.7034 41.2455 31.5463 41.2371 31.3896 41.2244L31.399 37.8838C31.5554 37.8966 31.7125 37.9052 31.8699 37.909Z" fill="white"/>
<path d="M31.3991 37.885L31.3897 41.2256C31.2342 41.2127 31.0792 41.1954 30.9248 41.1736L30.9343 37.833C31.088 37.8549 31.2431 37.8721 31.3991 37.885Z" fill="white"/>
<path d="M30.9346 37.8334L30.9251 41.174C30.7663 41.1515 30.6082 41.1241 30.4512 41.0916L30.4606 37.751C30.6165 37.7834 30.7747 37.8109 30.9346 37.8334Z" fill="white"/>
<path d="M30.4606 37.7506L30.4511 41.0913C30.2835 41.0566 30.1172 41.0158 29.9526 40.969L29.962 37.6286C30.1249 37.6749 30.2914 37.7156 30.4606 37.7506ZM29.962 37.6286L29.9526 40.9689C29.756 40.9131 29.5623 40.8477 29.3721 40.773L29.3816 37.4325C29.5717 37.5074 29.7654 37.5729 29.962 37.6286Z" fill="white"/>
<path d="M29.3818 37.4324C29.3786 38.5459 29.3755 39.6594 29.3722 40.7729C29.1294 40.677 28.8984 40.5668 28.6826 40.4423L28.6921 37.1017C28.9079 37.2264 29.1388 37.3365 29.3818 37.4324Z" fill="white"/>
<path d="M59.9813 18.9177L35.2709 4.65113C33.3974 3.56946 30.3706 3.56946 28.5098 4.65085L3.9597 18.9177C2.0986 19.9993 2.10849 21.7526 3.98172 22.8342L28.6924 37.1009C30.5653 38.1824 33.5922 38.1823 35.4534 37.1007C43.6367 32.3451 51.8202 27.5895 60.0034 22.8338C61.8641 21.7524 61.8542 19.999 59.9813 18.9177ZM27.0623 9.35613L31.2385 10.6841L35.3868 8.2328L34.0549 11.6923L37.999 13.271L32.9996 14.0805L31.2892 17.5077L29.5316 14.5486L24.5303 15.0883L28.443 12.4494L27.0623 9.35613ZM14.8418 21.4701C13.9493 20.9549 13.348 20.2641 13.2142 19.4822C12.9087 17.6945 15.1621 16.1067 18.2471 15.9355C19.9827 15.8391 21.6115 16.2116 22.7591 16.8742C23.6515 17.3895 24.2529 18.0803 24.3865 18.8623C24.6921 20.6498 22.4391 22.2379 19.3537 22.4089C17.6181 22.5052 15.9895 22.1327 14.8418 21.4701ZM32.7771 32.9557L21.8672 26.6568L36.7091 24.3514L32.7771 32.9557ZM43.6869 25.612L34.6792 20.4114L43.6282 15.2105L52.6361 20.4113L43.6869 25.612Z" fill="white"/>
<path d="M61.441 27.7027C61.4359 29.5225 61.4307 31.3419 61.4255 33.1617C61.4234 33.9288 60.9193 34.6947 59.9122 35.2799L59.9277 29.8208C60.9347 29.2356 61.4389 28.4697 61.441 27.7027ZM2.60255 33.1319L2.61804 27.6729C2.61587 28.45 3.12883 29.2282 4.15587 29.8212L4.14037 35.2802C3.11326 34.6873 2.60037 33.9089 2.60255 33.1319Z" fill="white"/>
<path d="M59.927 29.8203L59.9116 35.2794L35.7876 49.2987L35.8031 43.8397L59.927 29.8203ZM28.4368 43.8396L28.4213 49.2986L4.13965 35.2796L4.15515 29.8206C12.249 34.4936 20.343 39.1666 28.4368 43.8396ZM35.8031 43.8397L35.7876 49.2986C33.76 50.4769 30.4622 50.4769 28.4213 49.2986L28.4368 43.8396C30.4777 45.0179 33.7755 45.018 35.8031 43.8397Z" fill="white"/>
<path d="M61.441 37.3755C61.4359 39.1952 61.4307 41.0146 61.4255 42.8344C61.4234 43.6015 60.9193 44.3674 59.9122 44.9527L59.9277 39.4936C60.9347 38.9084 61.4389 38.1425 61.441 37.3755ZM2.60255 42.8046L2.61804 37.3456C2.61587 38.1226 3.12883 38.9009 4.15587 39.4938L4.14037 44.9529C3.11326 44.3599 2.60037 43.5816 2.60255 42.8046Z" fill="white"/>
<path d="M59.927 39.4939L59.9116 44.953L35.7876 58.9723L35.8031 53.5132L59.927 39.4939ZM28.4368 53.5132L28.4213 58.9723L4.13965 44.9531L4.15515 39.4941L28.4368 53.5132ZM35.8031 53.5132L35.7876 58.9723C33.76 60.1506 30.4622 60.1506 28.4213 58.9723L28.4368 53.5132C30.4777 54.6916 33.7755 54.6916 35.8031 53.5132Z" fill="white"/>
<path d="M61.3921 20.8896L61.3825 24.2301C61.3825 24.2441 61.3823 24.2581 61.3818 24.2722L61.3914 20.9317C61.3918 20.9176 61.392 20.9036 61.3921 20.8896Z" fill="white"/>
<path d="M61.3915 20.9316L61.382 24.2722C61.3794 24.3643 61.3689 24.456 61.3507 24.5464L61.3602 21.2059C61.3784 21.1148 61.3889 21.0233 61.3915 20.9316ZM61.3601 21.2058L61.3506 24.5463C61.3321 24.638 61.3063 24.728 61.2734 24.8155L61.2829 21.475C61.3158 21.3875 61.3417 21.2975 61.3601 21.2058Z" fill="white"/>
<path d="M61.2833 21.4756L61.2738 24.8161C61.2384 24.9098 61.1958 25.0006 61.1465 25.0878L61.1557 21.7474C61.2052 21.6602 61.2479 21.5694 61.2833 21.4756Z" fill="white"/>
<path d="M61.1555 21.7473C61.1524 22.8607 61.1492 23.9743 61.1462 25.0878C61.0894 25.1878 61.0251 25.2833 60.9538 25.3734L60.9633 22.0329C61.0346 21.9428 61.0988 21.8473 61.1555 21.7473ZM60.9632 22.0329L60.9537 25.3734C60.8634 25.4873 60.7643 25.5939 60.6572 25.6922L60.6667 22.3517C60.7738 22.2535 60.873 22.1469 60.9632 22.0329Z" fill="white"/>
<path d="M60.6665 22.3516L60.6571 25.6921C60.4858 25.8503 60.2839 26.0006 60.0518 26.1403L60.0612 22.7998C60.2933 22.6602 60.4951 22.5098 60.6665 22.3516Z" fill="white"/>
<path d="M60.061 22.7998C60.0579 23.9133 60.0549 25.0268 60.0516 26.1403C60.0324 26.1519 60.013 26.1635 59.9932 26.1748L60.0026 22.8343C60.0223 22.8229 60.0418 22.8114 60.061 22.7998Z" fill="white"/>
<path d="M3.98141 22.8352L3.97202 26.1757C3.02927 25.6314 2.55845 24.917 2.56055 24.2037L2.56995 20.8633C2.56792 21.5766 3.03873 22.2909 3.98141 22.8352Z" fill="white"/>
<path d="M60.0029 22.835L59.9934 26.1755L35.4434 40.4424L35.4529 37.1018C43.6362 32.3462 51.8196 27.5907 60.0029 22.835Z" fill="white"/>
<path d="M28.6917 37.1018L28.6822 40.4425L3.97168 26.1757L3.98108 22.8352L28.6917 37.1018Z" fill="white"/>
<path d="M35.4528 37.1006L35.4433 40.4412C35.1242 40.6264 34.7712 40.78 34.3955 40.9017L34.4051 37.5614C34.7806 37.4395 35.1338 37.2859 35.4528 37.1006ZM34.4051 37.5614L34.3955 40.9017C34.1054 40.996 33.8019 41.071 33.4902 41.1273L33.4998 37.7866C33.8063 37.732 34.1087 37.6567 34.4051 37.5614Z" fill="white"/>
<path d="M33.5001 37.788L33.4906 41.1286C33.2903 41.1647 33.0863 41.193 32.8809 41.2135L32.8903 37.873C33.0959 37.8524 33.2997 37.8242 33.5001 37.788ZM32.8903 37.873L32.8809 41.2135C32.7052 41.231 32.5282 41.2428 32.3506 41.2487L32.36 37.9083C32.5371 37.9022 32.714 37.8905 32.8903 37.873Z" fill="white"/>
<path d="M32.3596 37.9067L32.3502 41.2472C32.187 41.2528 32.0237 41.2536 31.8605 41.2496L31.8699 37.909C32.0331 37.913 32.1966 37.9123 32.3596 37.9067ZM31.8699 37.909L31.8605 41.2496C31.7034 41.2455 31.5463 41.2371 31.3896 41.2244L31.399 37.8838C31.5554 37.8966 31.7125 37.9052 31.8699 37.909Z" fill="white"/>
<path d="M31.3991 37.885L31.3897 41.2256C31.2342 41.2127 31.0792 41.1954 30.9248 41.1736L30.9343 37.833C31.088 37.8549 31.2431 37.8721 31.3991 37.885Z" fill="white"/>
<path d="M30.9346 37.8334L30.9251 41.174C30.7663 41.1515 30.6082 41.1241 30.4512 41.0916L30.4606 37.751C30.6165 37.7834 30.7747 37.8109 30.9346 37.8334Z" fill="white"/>
<path d="M30.4606 37.7506L30.4511 41.0913C30.2835 41.0566 30.1172 41.0158 29.9526 40.969L29.962 37.6286C30.1249 37.6749 30.2914 37.7156 30.4606 37.7506ZM29.962 37.6286L29.9526 40.9689C29.756 40.9131 29.5623 40.8477 29.3721 40.773L29.3816 37.4325C29.5717 37.5074 29.7654 37.5729 29.962 37.6286Z" fill="white"/>
<path d="M29.3818 37.4324C29.3786 38.5459 29.3755 39.6594 29.3722 40.7729C29.1294 40.677 28.8984 40.5668 28.6826 40.4423L28.6921 37.1017C28.9079 37.2264 29.1388 37.3365 29.3818 37.4324Z" fill="white"/>
<path d="M59.9813 18.9177L35.2709 4.65113C33.3974 3.56946 30.3706 3.56946 28.5098 4.65085L3.9597 18.9177C2.0986 19.9993 2.10849 21.7526 3.98172 22.8342L28.6924 37.1009C30.5653 38.1824 33.5922 38.1823 35.4534 37.1007C43.6367 32.3451 51.8202 27.5895 60.0034 22.8338C61.8641 21.7524 61.8542 19.999 59.9813 18.9177ZM27.0623 9.35613L31.2385 10.6841L35.3868 8.2328L34.0549 11.6923L37.999 13.271L32.9996 14.0805L31.2892 17.5077L29.5316 14.5486L24.5303 15.0883L28.443 12.4494L27.0623 9.35613ZM14.8418 21.4701C13.9493 20.9549 13.348 20.2641 13.2142 19.4822C12.9087 17.6945 15.1621 16.1067 18.2471 15.9355C19.9827 15.8391 21.6115 16.2116 22.7591 16.8742C23.6515 17.3895 24.2529 18.0803 24.3865 18.8623C24.6921 20.6498 22.4391 22.2379 19.3537 22.4089C17.6181 22.5052 15.9895 22.1327 14.8418 21.4701ZM32.7771 32.9557L21.8672 26.6568L36.7091 24.3514L32.7771 32.9557ZM43.6869 25.612L34.6792 20.4114L43.6282 15.2105L52.6361 20.4113L43.6869 25.612Z" fill="white"/>
</svg>
