<svg width="64" height="64" viewBox="0 0 64 64" fill="none" xmlns="http://www.w3.org/2000/svg">
<path fill-rule="evenodd" clip-rule="evenodd" d="M37.3262 2.8669C38.3138 2.45712 39.399 2.45713 40.3867 2.8669L46.6723 5.47048C47.66 5.88029 48.4297 6.64599 48.8362 7.63356C49.2427 8.62108 49.246 9.70608 48.8362 10.6936C48.0232 12.6519 49.199 14.0425 49.5786 14.4221C49.9582 14.8017 51.3456 15.9773 53.3042 15.1644C54.2918 14.7547 55.377 14.7547 56.3647 15.1644C57.3524 15.5742 58.1221 16.3438 58.5286 17.328L61.132 23.6127C61.5419 24.6003 61.5419 25.6852 61.132 26.6728C60.7222 27.6603 59.9529 28.4294 58.9686 28.8358C57.01 29.6454 56.8586 31.4597 56.8586 31.9972C56.8587 32.5349 57.0101 34.3452 58.9716 35.158C61.0075 36.0011 61.9787 38.3455 61.1355 40.3811L58.5316 46.6693C58.1217 47.6568 57.3525 48.4259 56.3682 48.8324C55.3805 49.2422 54.2954 49.2422 53.3077 48.8324C51.3491 48.0229 49.9582 49.1956 49.5786 49.5752C49.1989 49.9548 48.0266 51.3421 48.8362 53.3037C49.6793 55.3393 48.7081 57.6839 46.6723 58.5303L40.3832 61.1334C39.8893 61.3383 39.3721 61.4392 38.8514 61.4392C38.334 61.4392 37.813 61.3383 37.3192 61.1334C36.3316 60.7236 35.5622 59.9544 35.1558 58.9703C34.3428 57.012 32.532 56.8606 31.9945 56.8606C31.457 56.8606 29.6462 57.0121 28.8332 58.9738C27.9899 61.0094 25.6447 61.9766 23.6088 61.1369L17.3197 58.5338C15.2839 57.6906 14.3131 55.3458 15.1563 53.3102C15.9693 51.3519 14.7935 49.9612 14.4139 49.5817C14.0343 49.2021 12.6468 48.0265 10.6848 48.8394C8.64894 49.6791 6.3037 48.7118 5.46042 46.6763L2.86693 40.3846C2.0237 38.349 2.99451 36.0041 5.03033 35.161C6.99232 34.3481 7.14384 32.5376 7.14384 32.0001C7.14381 31.4625 6.9923 29.6522 5.03382 28.8393C4.04618 28.4329 3.27679 27.6638 2.86693 26.6763C2.45709 25.6887 2.45714 24.6037 2.86693 23.6162L5.47089 17.328C6.31751 15.2924 8.65902 14.3213 10.6983 15.1644C12.6602 15.9773 14.0476 14.8017 14.4239 14.4221C14.8035 14.0425 15.9759 12.6553 15.1663 10.6936C14.7565 9.70608 14.7565 8.62108 15.1663 7.63356C15.5761 6.64599 16.3458 5.87693 17.3302 5.47048L23.6193 2.8669C25.6552 2.02393 28 2.99495 28.8432 5.03048C29.6561 6.98834 31.4665 7.13964 32.001 7.13968C32.5351 7.13968 34.3497 6.98868 35.1628 5.03048C35.5726 4.04291 36.3384 3.27335 37.3262 2.8669ZM34.0157 21.1628C32.152 21.1628 30.4131 21.6938 28.9415 22.6135C26.6676 24.0348 25.0327 26.3827 24.5628 29.1277H23.4696C19.6834 29.1277 16.6147 32.1968 16.6147 35.9816C16.6147 39.7672 19.6843 42.8355 23.4696 42.8355H40.5393C44.3255 42.8355 47.3943 39.7664 47.3943 35.9816C47.3942 33.2823 45.8325 30.948 43.5629 29.8306C43.4705 28.8636 43.2347 27.938 42.8764 27.0763C41.4341 23.6042 38.0108 21.1629 34.0157 21.1628Z" fill="white"/>
</svg>
