<svg width="64" height="64" viewBox="0 0 64 64" fill="none" xmlns="http://www.w3.org/2000/svg">
<path d="M27.3065 23.9939H34.4846C38.9019 23.9939 38.9019 28.4112 34.4846 28.4112H27.3065V23.9939ZM10.1895 44.4239H32.2759V38.3501H27.3065V33.9329H32.8281C38.9019 33.9329 35.5889 44.4239 40.5583 44.4239H54.3624V33.9329H51.0494V35.0372C51.0494 39.4545 46.08 38.9023 45.5278 36.1415C44.9756 33.3807 42.767 31.172 42.2148 31.172C50.4972 26.7548 45.5278 17.9202 38.9019 17.9202H12.9503V23.9939H18.4719V38.3501H10.1895V44.4239Z" fill="white"/>
<path d="M38.9016 17.6006C42.3529 17.6006 45.3681 19.8966 46.4485 22.7775C46.9912 24.2248 47.0479 25.8276 46.4185 27.36C45.8433 28.7605 44.7044 30.0748 42.8923 31.155C42.9583 31.2041 43.0264 31.2586 43.0954 31.3175C43.4085 31.5846 43.7687 31.9639 44.1248 32.4268C44.836 33.3514 45.5528 34.6383 45.841 36.0793C46.0794 37.2711 47.29 38.0244 48.4785 37.9618C49.0608 37.9312 49.616 37.7029 50.0266 37.2475C50.4368 36.7924 50.7291 36.081 50.7291 35.0375V33.9331C50.7292 33.7564 50.8725 33.6131 51.0491 33.6131H54.3623C54.5388 33.6132 54.6822 33.7565 54.6823 33.9331V44.4243C54.6823 44.601 54.5389 44.7442 54.3623 44.7443H40.5579C39.8765 44.7443 39.3177 44.5631 38.861 44.2331C38.4086 43.9061 38.0767 43.4479 37.8204 42.9262C37.315 41.8973 37.0657 40.5347 36.7941 39.245C36.5164 37.9257 36.2143 36.6705 35.6285 35.7431C35.3398 35.286 34.987 34.9175 34.541 34.6618C34.0957 34.4065 33.5393 34.2531 32.8279 34.2531H27.626V38.0306H32.2754C32.4521 38.0306 32.5954 38.1739 32.5954 38.3506V44.4243C32.5954 44.6011 32.4521 44.7443 32.2754 44.7443H10.1891C10.0124 44.7443 9.86914 44.6011 9.86914 44.4243V38.3506C9.86914 38.1739 10.0124 38.0306 10.1891 38.0306H18.1516V24.3143H12.9498C12.7731 24.3142 12.6298 24.171 12.6298 23.9943V17.9206C12.6298 17.7439 12.7731 17.6007 12.9498 17.6006H38.9016ZM34.4841 23.6743C36.7781 23.6743 38.1173 24.8428 38.1173 26.2031C38.1172 27.5634 36.7781 28.7318 34.4841 28.7318H27.306C27.1294 28.7318 26.9861 28.5884 26.986 28.4118V23.9943C26.986 23.8177 27.1294 23.6744 27.306 23.6743H34.4841ZM27.626 28.0918H34.4841C36.6074 28.0918 37.4772 27.0514 37.4773 26.2031C37.4773 25.3548 36.6075 24.3143 34.4841 24.3143H27.626V28.0918ZM51.3691 35.0375C51.3691 36.2024 51.0404 37.0787 50.5016 37.6762C49.9633 38.2733 49.2414 38.5628 48.5123 38.6012C47.0781 38.6767 45.5274 37.7738 45.2135 36.205C44.9496 34.8852 44.2864 33.6868 43.6173 32.8168C43.2833 32.3827 42.9532 32.0376 42.6798 31.8043C42.5426 31.6873 42.4249 31.6029 42.3329 31.55C42.2294 31.4904 42.1961 31.4925 42.2148 31.4925C42.0679 31.4925 41.9398 31.3924 41.9041 31.25C41.8686 31.1075 41.9346 30.959 42.0641 30.89C44.0833 29.813 45.2653 28.4835 45.8266 27.1168C46.3879 25.7504 46.3417 24.316 45.8491 23.0025C44.8589 20.3618 42.0762 18.2406 38.9016 18.2406H13.2698V23.6743H18.4716C18.6483 23.6744 18.7916 23.8176 18.7916 23.9943V38.3506C18.7916 38.5273 18.6483 38.6705 18.4716 38.6706H10.5091V44.1043H31.9554V38.6706H27.306C27.1294 38.6705 26.986 38.5273 26.986 38.3506V33.9331C26.9861 33.7565 27.1294 33.6132 27.306 33.6131H32.8279C33.6348 33.6131 34.3038 33.7878 34.8591 34.1062C35.4138 34.4242 35.8374 34.8756 36.1698 35.4018C36.8263 36.4415 37.146 37.8096 37.4204 39.1131C37.701 40.4459 37.934 41.7063 38.3948 42.6443C38.6216 43.106 38.8941 43.4676 39.2354 43.7143C39.5724 43.9579 39.9972 44.1043 40.5579 44.1043H54.0423V34.2531H51.3691V35.0375Z" fill="white"/>
<path d="M52.8626 31.9992C52.8626 20.477 43.5223 11.1362 32.0001 11.1361C20.4778 11.1361 11.137 20.4769 11.137 31.9992C11.137 43.5214 20.4779 52.8617 32.0001 52.8617C43.5222 52.8616 52.8625 43.5214 52.8626 31.9992ZM58.6226 31.9992C58.6225 46.7025 46.7034 58.6216 32.0001 58.6217C17.2967 58.6217 5.37705 46.7026 5.37695 31.9992C5.37695 17.2958 17.2966 5.3761 32.0001 5.3761C46.7034 5.37619 58.6226 17.2958 58.6226 31.9992Z" fill="white"/>
<path d="M57.3994 33.656L60.1602 31.9995L57.3994 30.343V33.656Z" fill="white"/>
<path d="M56.9263 29.5075C57.2273 29.3371 57.5966 29.3421 57.8932 29.52L60.6545 31.1762C60.9435 31.3497 61.12 31.6623 61.1201 31.9994C61.1201 32.3364 60.9434 32.649 60.6545 32.8225L57.8932 34.4794C57.5967 34.6572 57.2272 34.6616 56.9263 34.4912C56.6255 34.3208 56.4395 34.002 56.4395 33.6562V30.3431C56.4395 29.9973 56.6254 29.6779 56.9263 29.5075Z" fill="white"/>
<path d="M56.588 38.5796L59.619 37.4936L57.2344 35.3303L56.588 38.5796Z" fill="white"/>
<path d="M56.9337 34.4184C57.2621 34.31 57.6234 34.387 57.8796 34.6193L60.2646 36.7825C60.5143 37.009 60.6264 37.35 60.5607 37.6806C60.495 38.0112 60.2607 38.2832 59.9435 38.3971L56.912 39.4834C56.5865 39.6 56.2233 39.5322 55.9614 39.3064C55.6997 39.0806 55.5794 38.7316 55.6468 38.3925L56.2932 35.143C56.3606 34.8038 56.6053 34.5269 56.9337 34.4184Z" fill="white"/>
<path d="M54.8318 43.2506L58.0164 42.7767L56.0996 40.1898L54.8318 43.2506Z" fill="white"/>
<path d="M55.9823 39.2371C56.3255 39.1948 56.6649 39.3408 56.8708 39.6186L58.788 42.2055C58.9886 42.4764 59.0321 42.8327 58.9032 43.1441C58.7742 43.4556 58.4914 43.6767 58.158 43.7264L54.9729 44.2005C54.6309 44.2513 54.2879 44.114 54.0751 43.8415C53.8624 43.5689 53.8125 43.2031 53.9448 42.8837L55.2127 39.8228C55.345 39.5032 55.639 39.2793 55.9823 39.2371Z" fill="white"/>
<path d="M52.1985 47.4883L55.4143 47.6448L54.0391 44.7336L52.1985 47.4883Z" fill="white"/>
<path d="M54.1101 43.7764C54.455 43.8019 54.7593 44.0113 54.9071 44.324L56.2828 47.2352C56.4267 47.54 56.3999 47.898 56.2127 48.1783C56.0254 48.4585 55.7049 48.6202 55.3682 48.604L52.1518 48.4476C51.8064 48.4307 51.4968 48.2291 51.3413 47.9203C51.1858 47.6115 51.2083 47.243 51.4004 46.9555L53.241 44.2007C53.4332 43.9132 53.7652 43.7509 54.1101 43.7764Z" fill="white"/>
<path d="M48.7882 51.131L51.9117 51.9118L51.1309 48.7883L48.7882 51.131Z" fill="white"/>
<path d="M51.3871 47.8634C51.7204 47.9557 51.9781 48.2205 52.062 48.5559L52.8433 51.6796C52.925 52.0066 52.8288 52.3525 52.5905 52.5909C52.3522 52.8292 52.0063 52.9253 51.6793 52.8437L48.5552 52.0627C48.2197 51.9788 47.9554 51.7207 47.8631 51.3875C47.7709 51.0543 47.8648 50.6973 48.1093 50.4528L50.452 48.11C50.6966 47.8655 51.0538 47.7711 51.3871 47.8634Z" fill="white"/>
<path d="M44.7336 54.0391L47.6448 55.4143L47.4883 52.1985L44.7336 54.0391Z" fill="white"/>
<path d="M47.92 51.3405C48.2288 51.4961 48.4299 51.806 48.4467 52.1514L48.6037 55.3675C48.62 55.7041 48.4582 56.0246 48.178 56.2119C47.8977 56.3992 47.5397 56.4259 47.2349 56.2821L44.3232 54.9067C44.0105 54.7589 43.8016 54.4542 43.7761 54.1094C43.7507 53.7646 43.9125 53.4328 44.1999 53.2406L46.9547 51.4C47.2422 51.2078 47.6111 51.185 47.92 51.3405Z" fill="white"/>
<path d="M40.1892 56.1L42.7761 58.0167L43.25 54.8322L40.1892 56.1Z" fill="white"/>
<path d="M43.8409 54.0748C44.1135 54.2877 44.2502 54.6308 44.1993 54.9729L43.7259 58.1578C43.6762 58.4912 43.455 58.7739 43.1436 58.9029C42.8321 59.0319 42.4758 58.9883 42.2049 58.7878L39.6175 56.8708C39.3397 56.6648 39.1943 56.3252 39.2365 55.982C39.2788 55.6389 39.5022 55.345 39.8216 55.2127L42.8826 53.9448C43.2021 53.8124 43.5683 53.862 43.8409 54.0748Z" fill="white"/>
<path d="M35.3308 57.2345L37.494 59.6191L38.5801 56.5881L35.3308 57.2345Z" fill="white"/>
<path d="M39.3069 55.961C39.5327 56.2229 39.5999 56.5862 39.4833 56.9118L38.3976 59.9431C38.2838 60.2604 38.0117 60.4945 37.6811 60.5603C37.3505 60.6261 37.0095 60.5138 36.7829 60.2642L34.6192 57.8793C34.3869 57.6231 34.3105 57.2617 34.4189 56.9333C34.5274 56.605 34.8038 56.3604 35.1429 56.2929L38.3924 55.6465C38.7316 55.5791 39.0811 55.6991 39.3069 55.961Z" fill="white"/>
<path d="M30.3433 57.3997L31.9998 60.1605L33.6562 57.3997H30.3433Z" fill="white"/>
<path d="M34.4918 56.9266C34.6622 57.2275 34.6572 57.5969 34.4793 57.8934L32.823 60.6547C32.6496 60.9437 32.337 61.1202 31.9999 61.1203C31.6628 61.1203 31.3503 60.9437 31.1768 60.6547L29.5199 57.8934C29.3421 57.5969 29.3377 57.2275 29.508 56.9266C29.6784 56.6258 29.9973 56.4398 30.343 56.4397H33.6561C34.002 56.4397 34.3214 56.6256 34.4918 56.9266Z" fill="white"/>
<path d="M25.4196 56.588L26.5057 59.619L28.6689 57.2344L25.4196 56.588Z" fill="white"/>
<path d="M29.5808 56.933C29.6892 57.2614 29.6123 57.6227 29.3799 57.8788L27.2168 60.2639C26.9903 60.5135 26.6493 60.6257 26.3187 60.56C25.9881 60.4942 25.716 60.26 25.6022 59.9427L24.5159 56.9113C24.3993 56.5858 24.467 56.2226 24.6928 55.9607C24.9187 55.6989 25.2677 55.5787 25.6068 55.6461L28.8562 56.2924C29.1955 56.3599 29.4724 56.6046 29.5808 56.933Z" fill="white"/>
<path d="M20.7498 54.832L21.2236 58.0166L23.8105 56.0999L20.7498 54.832Z" fill="white"/>
<path d="M24.7632 55.9825C24.8054 56.3258 24.6595 56.6651 24.3816 56.871L21.7948 58.7883C21.5239 58.9889 21.1675 59.0324 20.8561 58.9034C20.5447 58.7744 20.3236 58.4916 20.2738 58.1583L19.7997 54.9731C19.7489 54.6311 19.8862 54.2881 20.1588 54.0753C20.4313 53.8626 20.7971 53.8128 21.1165 53.945L24.1775 55.2129C24.497 55.3453 24.7209 55.6392 24.7632 55.9825Z" fill="white"/>
<path d="M16.512 52.1987L16.3555 55.4145L19.2666 54.0393L16.512 52.1987Z" fill="white"/>
<path d="M20.2237 54.1094C20.1982 54.4543 19.9888 54.7586 19.6761 54.9064L16.7649 56.2821C16.4601 56.426 16.1022 56.3991 15.8219 56.2119C15.5416 56.0247 15.3799 55.7041 15.3961 55.3675L15.5526 52.1511C15.5694 51.8057 15.771 51.4961 16.0799 51.3405C16.3887 51.1851 16.7571 51.2076 17.0446 51.3996L19.7994 53.2403C20.087 53.4324 20.2492 53.7645 20.2237 54.1094Z" fill="white"/>
<path d="M12.8683 48.7886L12.0874 51.9121L15.2109 51.1312L12.8683 48.7886Z" fill="white"/>
<path d="M16.1361 51.3875C16.0438 51.7208 15.7791 51.9784 15.4436 52.0624L12.3199 52.8437C11.9929 52.9254 11.6471 52.8292 11.4086 52.5909C11.1703 52.3526 11.0742 52.0067 11.1559 51.6796L11.9368 48.5555C12.0207 48.2201 12.2788 47.9558 12.6121 47.8635C12.9453 47.7713 13.3023 47.8652 13.5468 48.1096L15.8895 50.4524C16.1341 50.6969 16.2284 51.0542 16.1361 51.3875Z" fill="white"/>
<path d="M9.96117 44.7336L8.58594 47.6448L11.8018 47.4883L9.96117 44.7336Z" fill="white"/>
<path d="M12.6589 47.9203C12.5033 48.2292 12.1934 48.4302 11.848 48.4471L8.63193 48.604C8.29525 48.6204 7.97481 48.4585 7.78747 48.1783C7.6002 47.8981 7.57347 47.5401 7.71732 47.2352L9.0927 44.3235C9.24047 44.0109 9.54518 43.802 9.89003 43.7765C10.2348 43.7511 10.5666 43.9128 10.7588 44.2003L12.5994 46.955C12.7916 47.2426 12.8144 47.6114 12.6589 47.9203Z" fill="white"/>
<path d="M7.90015 40.1904L5.98341 42.7773L9.16797 43.2512L7.90015 40.1904Z" fill="white"/>
<path d="M9.92444 43.8421C9.71162 44.1147 9.36844 44.2514 9.02638 44.2006L5.8415 43.7271C5.5081 43.6774 5.22539 43.4562 5.09632 43.1448C4.96733 42.8334 5.01095 42.477 5.21151 42.2061L7.12851 39.6187C7.33442 39.3409 7.67404 39.1955 8.01724 39.2377C8.36036 39.28 8.65424 39.5035 8.7866 39.8228L10.0545 42.8838C10.1868 43.2033 10.1373 43.5695 9.92444 43.8421Z" fill="white"/>
<path d="M6.76578 35.3302L4.38119 37.4934L7.41211 38.5795L6.76578 35.3302Z" fill="white"/>
<path d="M8.03922 39.3072C7.77731 39.533 7.41405 39.6002 7.08848 39.4835L4.05717 38.3978C3.73987 38.2841 3.50575 38.0119 3.43991 37.6813C3.37415 37.3507 3.48645 37.0098 3.73601 36.7832L6.12096 34.6195C6.37711 34.3872 6.73857 34.3108 7.06694 34.4192C7.39521 34.5276 7.63986 34.8041 7.70736 35.1432L8.35372 38.3926C8.42119 38.7318 8.30116 39.0813 8.03922 39.3072Z" fill="white"/>
<path d="M6.60059 30.3434L3.83978 31.9999L6.60059 33.6564V30.3434Z" fill="white"/>
<path d="M7.07367 34.492C6.77273 34.6624 6.40335 34.6574 6.1068 34.4795L3.34555 32.8233C3.05653 32.6498 2.88 32.3372 2.87992 32.0001C2.87992 31.6631 3.05659 31.3506 3.34555 31.177L6.1068 29.5201C6.40334 29.3423 6.77276 29.3379 7.07367 29.5083C7.37448 29.6787 7.56049 29.9975 7.56055 30.3433L7.56055 33.6564C7.56055 34.0023 7.37464 34.3216 7.07367 34.492Z" fill="white"/>
<path d="M7.41195 25.4199L4.38103 26.5059L6.76562 28.6692L7.41195 25.4199Z" fill="white"/>
<path d="M7.06629 29.5811C6.73789 29.6895 6.37658 29.6125 6.12043 29.3802L3.73535 27.2171C3.48574 26.9905 3.37358 26.6495 3.43926 26.3189C3.50502 25.9883 3.73926 25.7163 4.05652 25.6024L7.08796 24.5161C7.4135 24.3995 7.77668 24.4673 8.03857 24.6931C8.30035 24.9189 8.42058 25.2679 8.35319 25.607L7.70683 28.8565C7.63936 29.1957 7.39472 29.4727 7.06629 29.5811Z" fill="white"/>
<path d="M9.16821 20.7493L5.98365 21.2232L7.90039 23.8101L9.16821 20.7493Z" fill="white"/>
<path d="M8.01773 24.7634C7.67449 24.8057 7.33514 24.6597 7.12924 24.3819L5.21199 21.795C5.01136 21.5241 4.96789 21.1678 5.09681 20.8563C5.2258 20.5449 5.50861 20.3238 5.84199 20.2741L9.02711 19.8C9.36914 19.7492 9.71212 19.8865 9.92493 20.159C10.1376 20.4316 10.1875 20.7974 10.0552 21.1168L8.78732 24.1777C8.65497 24.4972 8.361 24.7212 8.01773 24.7634Z" fill="white"/>
<path d="M11.8015 16.5122L8.5857 16.3557L9.96094 19.2668L11.8015 16.5122Z" fill="white"/>
<path d="M9.8899 20.2241C9.54501 20.1985 9.24066 19.9892 9.09291 19.6765L7.71718 16.7653C7.57325 16.4605 7.60013 16.1025 7.78733 15.8222C7.97461 15.542 8.29512 15.3803 8.63179 15.3965L11.8482 15.5529C12.1936 15.5698 12.5032 15.7714 12.6587 16.0802C12.8142 16.389 12.7917 16.7575 12.5996 17.045L10.759 19.7998C10.5668 20.0873 10.2348 20.2496 9.8899 20.2241Z" fill="white"/>
<path d="M15.2108 12.8684L12.0873 12.0876L12.8682 15.2111L15.2108 12.8684Z" fill="white"/>
<path d="M12.6119 16.1365C12.2786 16.0442 12.0209 15.7794 11.937 15.4439L11.1557 12.3203C11.074 11.9933 11.1702 11.6474 11.4085 11.409C11.6468 11.1707 11.9927 11.0746 12.3198 11.1562L15.4438 11.9371C15.7793 12.0211 16.0436 12.2792 16.1359 12.6124C16.2281 12.9456 16.1342 13.3026 15.8898 13.5471L13.547 15.8899C13.3025 16.1344 12.9452 16.2288 12.6119 16.1365Z" fill="white"/>
<path d="M19.2664 9.96044L16.3552 8.5852L16.5117 11.801L19.2664 9.96044Z" fill="white"/>
<path d="M16.0791 12.6591C15.7702 12.5035 15.5691 12.1936 15.5523 11.8482L15.3953 8.63217C15.379 8.29549 15.5408 7.97505 15.8211 7.78771C16.1013 7.60044 16.4593 7.57372 16.7642 7.71756L19.6759 9.09295C19.9885 9.24071 20.1974 9.54542 20.2229 9.89028C20.2483 10.2351 20.0865 10.5669 19.7991 10.759L17.0444 12.5997C16.7568 12.7918 16.388 12.8147 16.0791 12.6591Z" fill="white"/>
<path d="M23.8108 7.89942L21.2239 5.98267L20.75 9.16724L23.8108 7.89942Z" fill="white"/>
<path d="M20.1591 9.92469C19.8865 9.71186 19.7498 9.36869 19.8007 9.02663L20.2741 5.84174C20.3238 5.50835 20.545 5.22563 20.8564 5.09657C21.1679 4.96757 21.5242 5.0112 21.7951 5.21175L24.3825 7.12876C24.6603 7.33467 24.8057 7.67428 24.7635 8.01749C24.7212 8.36061 24.4978 8.65449 24.1784 8.78684L21.1174 10.0547C20.7979 10.1871 20.4317 10.1375 20.1591 9.92469Z" fill="white"/>
<path d="M28.6692 6.76505L26.506 4.38045L25.4199 7.41138L28.6692 6.76505Z" fill="white"/>
<path d="M24.6931 8.03849C24.4673 7.77657 24.4001 7.41332 24.5167 7.08775L25.6024 4.05644C25.7162 3.73914 25.9883 3.50502 26.3189 3.43918C26.6495 3.37342 26.9905 3.48572 27.2171 3.73527L29.3808 6.12023C29.6131 6.37638 29.6895 6.73784 29.5811 7.06621C29.4726 7.39447 29.1962 7.63912 28.8571 7.70663L25.6076 8.35298C25.2684 8.42046 24.9189 8.30043 24.6931 8.03849Z" fill="white"/>
<path d="M33.6567 6.60083L32.0002 3.84002L30.3438 6.60083L33.6567 6.60083Z" fill="white"/>
<path d="M29.5082 7.07392C29.3378 6.77298 29.3428 6.4036 29.5207 6.10704L31.177 3.34579C31.3504 3.05678 31.663 2.88025 32.0001 2.88017C32.3372 2.88017 32.6497 3.05683 32.8232 3.34579L34.4801 6.10704C34.6579 6.40359 34.6623 6.773 34.492 7.07392C34.3216 7.37472 34.0027 7.56074 33.657 7.56079L30.3439 7.56079C29.998 7.56079 29.6786 7.37488 29.5082 7.07392Z" fill="white"/>
<path d="M38.5794 7.4122L37.4933 4.38127L35.3301 6.76587L38.5794 7.4122Z" fill="white"/>
<path d="M34.4182 7.06641C34.3098 6.73801 34.3868 6.37671 34.6191 6.12055L36.7822 3.73548C37.0087 3.48586 37.3497 3.3737 37.6804 3.43938C38.011 3.50514 38.283 3.73938 38.3968 4.05664L39.4832 7.08808C39.5997 7.41362 39.532 7.7768 39.3062 8.03869C39.0804 8.30047 38.7313 8.4207 38.3922 8.35331L35.1428 7.70695C34.8036 7.63948 34.5266 7.39484 34.4182 7.06641Z" fill="white"/>
<path d="M43.2502 9.16845L42.7764 5.98389L40.1895 7.90063L43.2502 9.16845Z" fill="white"/>
<path d="M39.2368 8.01797C39.1946 7.67474 39.3405 7.33539 39.6184 7.12948L42.2052 5.21224C42.4761 5.01161 42.8325 4.96814 43.1439 5.09705C43.4553 5.22605 43.6764 5.50886 43.7262 5.84223L44.2003 9.02735C44.2511 9.36938 44.1138 9.71236 43.8412 9.92517C43.5687 10.1379 43.2029 10.1877 42.8835 10.0554L39.8225 8.78757C39.503 8.65521 39.2791 8.36124 39.2368 8.01797Z" fill="white"/>
<path d="M47.488 11.8015L47.6445 8.5857L44.7334 9.96094L47.488 11.8015Z" fill="white"/>
<path d="M43.7763 9.89014C43.8018 9.54526 44.0112 9.24091 44.3239 9.09316L47.2351 7.71743C47.5399 7.5735 47.8978 7.60038 48.1781 7.78758C48.4584 7.97485 48.6201 8.29536 48.6039 8.63203L48.4474 11.8484C48.4306 12.1938 48.229 12.5034 47.9201 12.659C47.6113 12.8144 47.2429 12.7919 46.9554 12.5999L44.2006 10.7592C43.913 10.5671 43.7508 10.2351 43.7763 9.89014Z" fill="white"/>
<path d="M51.1317 15.211L51.9126 12.0875L48.7891 12.8684L51.1317 15.211Z" fill="white"/>
<path d="M47.8629 12.6121C47.9552 12.2788 48.22 12.0212 48.5554 11.9373L51.6791 11.1559C52.0061 11.0742 52.352 11.1704 52.5904 11.4087C52.8287 11.6471 52.9248 11.993 52.8432 12.32L52.0623 15.4441C51.9783 15.7795 51.7202 16.0439 51.387 16.1362C51.0538 16.2284 50.6968 16.1344 50.4523 15.89L48.1095 13.5473C47.865 13.3027 47.7706 12.9454 47.8629 12.6121Z" fill="white"/>
<path d="M54.0388 19.2666L55.4141 16.3555L52.1982 16.512L54.0388 19.2666Z" fill="white"/>
<path d="M51.3411 16.0796C51.4967 15.7707 51.8066 15.5696 52.152 15.5528L55.3681 15.3958C55.7048 15.3795 56.0252 15.5413 56.2125 15.8215C56.3998 16.1018 56.4265 16.4598 56.2827 16.7646L54.9073 19.6763C54.7595 19.989 54.4548 20.1979 54.11 20.2234C53.7652 20.2488 53.4334 20.087 53.2412 19.7996L51.4006 17.0448C51.2084 16.7573 51.1856 16.3884 51.3411 16.0796Z" fill="white"/>
<path d="M56.0998 23.8101L58.0166 21.2231L54.832 20.7493L56.0998 23.8101Z" fill="white"/>
<path d="M54.0756 20.1586C54.2884 19.886 54.6316 19.7493 54.9736 19.8002L58.1585 20.2737C58.4919 20.3233 58.7746 20.5446 58.9037 20.8559C59.0327 21.1674 58.989 21.5237 58.7885 21.7946L56.8715 24.382C56.6656 24.6598 56.326 24.8053 55.9828 24.763C55.6396 24.7207 55.3458 24.4973 55.2134 24.1779L53.9455 21.117C53.8132 20.7974 53.8627 20.4312 54.0756 20.1586Z" fill="white"/>
<path d="M57.2342 28.6696L59.6188 26.5063L56.5879 25.4203L57.2342 28.6696Z" fill="white"/>
<path d="M55.9608 24.6933C56.2227 24.4675 56.586 24.4003 56.9115 24.517L59.9428 25.6027C60.2601 25.7164 60.4942 25.9886 60.5601 26.3192C60.6259 26.6498 60.5135 26.9907 60.264 27.2173L57.879 29.381C57.6229 29.6133 57.2614 29.6897 56.9331 29.5813C56.6048 29.4729 56.3601 29.1964 56.2926 28.8573L55.6463 25.6079C55.5788 25.2687 55.6988 24.9192 55.9608 24.6933Z" fill="white"/>
<path d="M28.1348 8.80884L31.9999 12.674L35.865 8.80884H28.1348Z" fill="white"/>
<path d="M35.8638 6.88916C36.6403 6.88916 37.341 7.35677 37.6382 8.07416C37.9353 8.79154 37.7709 9.61754 37.2219 10.1667L33.3563 14.0317C32.6065 14.7815 31.3911 14.7815 30.6413 14.0317L26.7763 10.1667C26.2272 9.61754 26.0629 8.79162 26.3601 8.07416C26.6573 7.35684 27.3573 6.88916 28.1338 6.88916H35.8638Z" fill="white"/>
<path d="M52.8604 21.1573L50.3788 26.0277L55.2491 28.5093L52.8604 21.1573Z" fill="white"/>
<path d="M57.0757 27.9162C57.3157 28.6547 57.0875 29.4655 56.4971 29.9699C55.9066 30.4742 55.0702 30.573 54.3783 30.2206L49.508 27.7385C48.5632 27.2571 48.1876 26.1012 48.669 25.1564L51.1505 20.2862C51.503 19.5943 52.2378 19.1828 53.0119 19.2438C53.786 19.3048 54.4471 19.826 54.687 20.5645L57.0757 27.9162Z" fill="white"/>
<path d="M48.7578 48.4905L43.359 47.6354L42.5039 53.0342L48.7578 48.4905Z" fill="white"/>
<path d="M43.6325 54.5874C43.0043 55.0438 42.1626 55.0773 41.5005 54.6716C40.8384 54.2659 40.4859 53.501 40.6073 52.7341L41.4628 47.3351C41.6287 46.2878 42.612 45.5734 43.6593 45.7393L49.058 46.5943C49.825 46.7158 50.4434 47.2874 50.6247 48.0425C50.8058 48.7976 50.5144 49.5874 49.8862 50.0438L43.6325 54.5874Z" fill="white"/>
<path d="M21.4951 53.0334L20.64 47.6346L15.2412 48.4897L21.4951 53.0334Z" fill="white"/>
<path d="M14.113 50.044C13.4847 49.5875 13.1928 48.7974 13.374 48.0423C13.5552 47.2873 14.1738 46.7157 14.9407 46.5941L20.3398 45.7394C21.3871 45.5736 22.3704 46.2879 22.5363 47.3353L23.3914 52.7339C23.5128 53.5009 23.1603 54.2657 22.4982 54.6714C21.8361 55.0771 20.9948 55.044 20.3667 54.5875L14.113 50.044Z" fill="white"/>
<path d="M8.74902 28.51L13.6194 26.0284L11.1378 21.1581L8.74902 28.51Z" fill="white"/>
<path d="M9.31208 20.5647C9.55204 19.8261 10.2133 19.3043 10.9874 19.2433C11.7615 19.1824 12.4962 19.594 12.8488 20.2858L15.3301 25.1566C15.8115 26.1014 15.436 27.2573 14.4912 27.7387L9.62097 30.2202C8.92904 30.5727 8.09276 30.4738 7.50226 29.9695C6.9119 29.4651 6.68343 28.6548 6.92337 27.9163L9.31208 20.5647Z" fill="white"/>
</svg>
