<svg width="64" height="64" viewBox="0 0 64 64" fill="none" xmlns="http://www.w3.org/2000/svg">
<path fill-rule="evenodd" clip-rule="evenodd" d="M38.1727 24.4026C41.5818 24.4027 44.3452 27.1666 44.3452 30.5757V36.2738C44.3451 39.6829 41.5817 42.4462 38.1727 42.4463H25.8264C22.4174 42.4462 19.654 39.6829 19.6539 36.2738V30.5757C19.6539 27.1666 22.4173 24.4027 25.8264 24.4026H38.1727ZM26.3014 31.0507C25.5147 31.0507 24.8771 31.6883 24.8771 32.4751V34.3744C24.8771 35.1611 25.5148 35.7988 26.3014 35.7988C27.0881 35.7988 27.7257 35.1611 27.7258 34.3744V32.4751C27.7258 31.6883 27.0882 31.0507 26.3014 31.0507ZM37.6977 31.0507C36.911 31.0507 36.2733 31.6883 36.2733 32.4751V34.3744C36.2734 35.1611 36.911 35.7988 37.6977 35.7988C38.4844 35.7988 39.122 35.1611 39.1221 34.3744V32.4751C39.1221 31.6883 38.4844 31.0507 37.6977 31.0507Z" fill="white"/>
<path fill-rule="evenodd" clip-rule="evenodd" d="M31.9996 2.56006C48.2588 2.56006 61.4396 15.7408 61.4396 32.0001C61.4396 48.2593 48.2588 61.4401 31.9996 61.4401C15.7403 61.4401 2.55957 48.2593 2.55957 32.0001C2.55957 15.7408 15.7403 2.56006 31.9996 2.56006ZM31.9996 12.5319C30.6884 12.5319 29.6253 13.5946 29.6252 14.9057C29.6252 16.0297 30.4068 16.9704 31.4558 17.2163L31.1289 19.1794H30.1002C29.0459 19.1794 28.126 19.7525 27.6333 20.6038H25.8264C21.1157 20.6039 17.1684 23.8709 16.1252 28.2626C14.3517 28.583 13.0058 30.1342 13.0058 32.0001V34.8494C13.006 36.7152 14.3518 38.2658 16.1252 38.5863C17.1682 42.9782 21.1155 46.245 25.8264 46.2451H27.9633V49.8244C27.9633 50.1584 28.2989 50.3879 28.6102 50.2669L39.0533 46.2057C43.3694 45.8279 46.8966 42.7015 47.8739 38.5863C49.6475 38.2659 50.9932 36.7153 50.9933 34.8494V32.0001C50.9933 30.1341 49.6476 28.5829 47.8739 28.2626C46.8308 23.8709 42.8835 20.6039 38.1727 20.6038H36.3658C35.8731 19.7525 34.9533 19.1794 33.8989 19.1794H32.8702L32.5427 17.2163C33.592 16.9706 34.3739 16.0299 34.3739 14.9057C34.3738 13.5946 33.3107 12.5319 31.9996 12.5319Z" fill="white"/>
</svg>
