<svg width="24" height="24" viewBox="0 0 24 24" fill="none" xmlns="http://www.w3.org/2000/svg">
<g opacity="0.8">
<path fill-rule="evenodd" clip-rule="evenodd" d="M20.7212 3.12998C20.9917 3.01489 21.2877 2.97519 21.5786 3.01503C21.8694 3.05487 22.1443 3.17277 22.3748 3.35649C22.6052 3.5402 22.7827 3.78299 22.8889 4.05961C22.995 4.33622 23.0259 4.63653 22.9782 4.92929L20.4957 20.1526C20.2549 21.621 18.6611 22.4631 17.329 21.7316C16.2147 21.1197 14.5597 20.1769 13.0711 19.1931C12.3267 18.7007 10.0467 17.1238 10.3269 16.0018C10.5677 15.0424 14.3988 11.4371 16.588 9.29365C17.4472 8.45154 17.0554 7.96575 16.0407 8.74036C13.5209 10.6636 9.47532 13.5883 8.13772 14.4116C6.95775 15.1375 6.34259 15.2615 5.60702 15.1375C4.26505 14.9118 3.0205 14.5621 2.00471 14.1361C0.632094 13.5606 0.698864 11.6529 2.00362 11.0974L20.7212 3.12998Z" fill="white"/>
</g>
</svg>
