<svg width="24" height="24" viewBox="0 0 24 24" fill="none" xmlns="http://www.w3.org/2000/svg">
<g opacity="0.8">
<path fill-rule="evenodd" clip-rule="evenodd" d="M12.0022 0C5.92567 0 1 4.92567 1 11.0022C1 13.0816 1.57761 15.029 2.58211 16.6881L1.60072 20.024C1.54437 20.2155 1.54066 20.4187 1.58999 20.6121C1.63931 20.8056 1.73984 20.9822 1.88101 21.1233C2.02218 21.2645 2.19878 21.365 2.39223 21.4144C2.58569 21.4637 2.78886 21.46 2.98039 21.4036L6.31625 20.4222C8.0312 21.4597 9.99784 22.0069 12.0022 22.0044C18.0787 22.0044 23.0043 17.0787 23.0043 11.0022C23.0043 4.92567 18.0787 0 12.0022 0ZM9.51348 13.492C11.7392 15.7166 13.8637 16.0104 14.6141 16.0379C15.755 16.0797 16.8662 15.2083 17.2986 14.1972C17.3527 14.0713 17.3723 13.9333 17.3553 13.7973C17.3383 13.6614 17.2853 13.5324 17.2018 13.4238C16.5989 12.6536 15.7836 12.1002 14.9871 11.5501C14.8208 11.4348 14.6164 11.3885 14.4167 11.4209C14.2171 11.4534 14.0378 11.562 13.9166 11.7239L13.2564 12.7306C13.2215 12.7845 13.1675 12.8232 13.1052 12.8387C13.0428 12.8542 12.977 12.8455 12.9209 12.8142C12.4731 12.5579 11.8206 12.1222 11.3519 11.6535C10.8833 11.1848 10.474 10.5621 10.244 10.1429C10.2162 10.0895 10.2083 10.0279 10.2219 9.96924C10.2354 9.91055 10.2694 9.85861 10.3177 9.82274L11.3343 9.06799C11.4798 8.94212 11.5738 8.76698 11.5981 8.57614C11.6225 8.3853 11.5756 8.19218 11.4664 8.03379C10.9735 7.31205 10.3992 6.39446 9.56629 5.78604C9.45858 5.70865 9.3327 5.66039 9.20086 5.64593C9.06901 5.63148 8.93567 5.65132 8.81374 5.70353C7.80154 6.13701 6.92577 7.24823 6.96758 8.39136C6.99508 9.14171 7.28884 11.2662 9.51348 13.492Z" fill="white"/>
</g>
</svg>
